<svg xmlns="http://www.w3.org/2000/svg" width="128" height="128" viewBox="0 0 128 128">
  <g stroke="#895A39" stroke-width="3.5" stroke-linecap="round" stroke-linejoin="round">
    <path d="M16 86h29V57h29v29h29v29H16Z" fill="#A9C49B"/>
    <path d="M45 86v29m29-29v29M45 86h29" fill="none" stroke="#7F9F7A" stroke-width="2.5"/>
    <path d="M16 16h87v29H74v29H45V45H16Z" fill="#C6B3D7"/>
    <path d="M45 16v29h29V16" fill="none" stroke="#9782AD" stroke-width="2.5"/>
    <path d="M83 24h10m-39 3h11M24 96h11m18-30h11" fill="none" stroke="#FFF6E4" stroke-width="3"/>
    <path d="m103 63 4 4 4-4m-4-11v14" fill="none" stroke="#D2A15C" stroke-width="3"/>
    <path d="m21 61 2 5 5 2-5 2-2 5-2-5-5-2 5-2Z" fill="#F1D185" stroke-width="2"/>
  </g>
</svg>
