<svg xmlns="http://www.w3.org/2000/svg" viewBox="0 0 800 1500" preserveAspectRatio="none"><defs><linearGradient id="paper" x2="0" y2="1"><stop stop-color="#fff3df"/><stop offset="1" stop-color="#e7e8cc"/></linearGradient></defs><rect width="800" height="1500" fill="url(#paper)"/><path d="M6 6H800 M6 38H800 M6 70H800 M6 102H800 M6 134H800 M6 166H800 M6 198H800 M6 230H800 M6 262H800 M6 294H800 M6 326H800 M6 358H800 M6 390H800 M6 422H800 M6 454H800 M6 486H800 M6 518H800 M6 550H800 M6 582H800 M6 614H800 M6 646H800 M6 678H800 M6 710H800 M6 742H800 M6 774H800 M6 806H800 M6 838H800 M6 870H800 M6 902H800 M6 934H800 M6 966H800 M6 998H800 M6 1030H800 M6 1062H800 M6 1094H800 M6 1126H800 M6 1158H800 M6 1190H800 M6 1222H800 M6 1254H800 M6 1286H800 M6 1318H800 M6 1350H800 M6 1382H800 M6 1414H800 M6 1446H800 M6 1478H800" fill="none" stroke="#bfae88" stroke-width="2" stroke-dasharray=".1 32" stroke-linecap="round" opacity=".22"/><path d="M0 168Q400.0 213 800 142V0H0Z" fill="#e7e8cc" opacity=".75"/><path d="M0 182Q400.0 227 800 156" fill="none" stroke="#bfae88" opacity=".2" stroke-width="2"/><path d="M0 1295Q400.0 1255 800 1315V1500H0Z" fill="#d8b78a" opacity=".26"/><path d="M0 1320H800M0 1416H800" stroke="#b89263" opacity=".18" stroke-width="2"/><path d="M42 0v80" stroke="#bb884c" stroke-width="2"/><circle cx="42" cy="78" r="4" fill="#bb884c"/><path d="M682 0v80" stroke="#bb884c" stroke-width="2"/><circle cx="682" cy="78" r="4" fill="#bb884c"/><g transform="translate(19 81) rotate(-12)"><rect x="0" y="3" width="21" height="21" rx="5" fill="#b89263"/><rect x="0" y="0" width="21" height="20" rx="5" fill="#86a578"/><path d="M5 5h11" stroke="#fff6db" stroke-width="2" stroke-linecap="round" opacity=".35"/><rect x="0" y="27" width="21" height="21" rx="5" fill="#b89263"/><rect x="0" y="24" width="21" height="20" rx="5" fill="#86a578"/><path d="M5 29h11" stroke="#fff6db" stroke-width="2" stroke-linecap="round" opacity=".35"/><rect x="24" y="27" width="21" height="21" rx="5" fill="#b89263"/><rect x="24" y="24" width="21" height="20" rx="5" fill="#86a578"/><path d="M29 29h11" stroke="#fff6db" stroke-width="2" stroke-linecap="round" opacity=".35"/><rect x="48" y="27" width="21" height="21" rx="5" fill="#b89263"/><rect x="48" y="24" width="21" height="20" rx="5" fill="#86a578"/><path d="M53 29h11" stroke="#fff6db" stroke-width="2" stroke-linecap="round" opacity=".35"/></g><g transform="translate(669 74) rotate(12)"><rect x="24" y="3" width="21" height="21" rx="5" fill="#b89263"/><rect x="24" y="0" width="21" height="20" rx="5" fill="#dbaa87"/><path d="M29 5h11" stroke="#fff6db" stroke-width="2" stroke-linecap="round" opacity=".35"/><rect x="0" y="27" width="21" height="21" rx="5" fill="#b89263"/><rect x="0" y="24" width="21" height="20" rx="5" fill="#dbaa87"/><path d="M5 29h11" stroke="#fff6db" stroke-width="2" stroke-linecap="round" opacity=".35"/><rect x="24" y="27" width="21" height="21" rx="5" fill="#b89263"/><rect x="24" y="24" width="21" height="20" rx="5" fill="#dbaa87"/><path d="M29 29h11" stroke="#fff6db" stroke-width="2" stroke-linecap="round" opacity=".35"/><rect x="48" y="27" width="21" height="21" rx="5" fill="#b89263"/><rect x="48" y="24" width="21" height="20" rx="5" fill="#dbaa87"/><path d="M53 29h11" stroke="#fff6db" stroke-width="2" stroke-linecap="round" opacity=".35"/></g><rect x="-30" y="795.0" width="154" height="12" rx="6" fill="#d8b78a"/><rect x="650" y="1050.0" width="184" height="12" rx="6" fill="#d8b78a"/><g transform="translate(40 750.0) scale(1.1)"><path d="M0 0q-5-35 7-68M0-16q-22-14-26-34M4-32q19-16 25-36" fill="none" stroke="#b89263" stroke-width="3" stroke-linecap="round"/><g fill="#86a578"><path d="M-2-26Q-36-22-34-49Q-6-54-2-26Z"/><path d="M4-39Q-5-69 11-81Q30-55 4-39Z"/><path d="M7-19Q37-18 38-47Q9-50 7-19Z"/></g><path d="M-24-1h49l-7 43h-34Z" fill="#dbaa87"/><rect x="-28" y="-7" width="57" height="10" rx="4" fill="#b89263"/><path d="M-15 7h31M-13 17h28" stroke="#fff4d8" opacity=".28" stroke-linecap="round" stroke-width="3"/></g><g transform="translate(760 1010.0) scale(0.95)"><path d="M0 0q-5-35 7-68M0-16q-22-14-26-34M4-32q19-16 25-36" fill="none" stroke="#b89263" stroke-width="3" stroke-linecap="round"/><g fill="#86a578"><path d="M-2-26Q-36-22-34-49Q-6-54-2-26Z"/><path d="M4-39Q-5-69 11-81Q30-55 4-39Z"/><path d="M7-19Q37-18 38-47Q9-50 7-19Z"/></g><path d="M-24-1h49l-7 43h-34Z" fill="#dbaa87"/><rect x="-28" y="-7" width="57" height="10" rx="4" fill="#b89263"/><path d="M-15 7h31M-13 17h28" stroke="#fff4d8" opacity=".28" stroke-linecap="round" stroke-width="3"/></g><g transform="translate(-14 1366) rotate(-8)"><rect x="32" y="3" width="29" height="29" rx="5" fill="#b89263"/><rect x="32" y="0" width="29" height="28" rx="5" fill="#dbaa87"/><path d="M37 5h19" stroke="#fff6db" stroke-width="2" stroke-linecap="round" opacity=".35"/><rect x="64" y="3" width="29" height="29" rx="5" fill="#b89263"/><rect x="64" y="0" width="29" height="28" rx="5" fill="#dbaa87"/><path d="M69 5h19" stroke="#fff6db" stroke-width="2" stroke-linecap="round" opacity=".35"/><rect x="32" y="35" width="29" height="29" rx="5" fill="#b89263"/><rect x="32" y="32" width="29" height="28" rx="5" fill="#dbaa87"/><path d="M37 37h19" stroke="#fff6db" stroke-width="2" stroke-linecap="round" opacity=".35"/><rect x="64" y="35" width="29" height="29" rx="5" fill="#b89263"/><rect x="64" y="32" width="29" height="28" rx="5" fill="#dbaa87"/><path d="M69 37h19" stroke="#fff6db" stroke-width="2" stroke-linecap="round" opacity=".35"/></g><g transform="translate(664 1391) rotate(8)"><rect x="0" y="3" width="27" height="27" rx="5" fill="#b89263"/><rect x="0" y="0" width="27" height="26" rx="5" fill="#86a578"/><path d="M5 5h17" stroke="#fff6db" stroke-width="2" stroke-linecap="round" opacity=".35"/><rect x="30" y="3" width="27" height="27" rx="5" fill="#b89263"/><rect x="30" y="0" width="27" height="26" rx="5" fill="#86a578"/><path d="M35 5h17" stroke="#fff6db" stroke-width="2" stroke-linecap="round" opacity=".35"/><rect x="30" y="33" width="27" height="27" rx="5" fill="#b89263"/><rect x="30" y="30" width="27" height="26" rx="5" fill="#86a578"/><path d="M35 35h17" stroke="#fff6db" stroke-width="2" stroke-linecap="round" opacity=".35"/><rect x="60" y="33" width="27" height="27" rx="5" fill="#b89263"/><rect x="60" y="30" width="27" height="26" rx="5" fill="#86a578"/><path d="M65 35h17" stroke="#fff6db" stroke-width="2" stroke-linecap="round" opacity=".35"/></g><g fill="#bb884c" opacity=".65"><path d="M732 284l5 10 11 2-8 8 1 11-9-5-10 5 2-11-8-8 11-2Z"/><circle cx="28" cy="345" r="4"/><circle cx="776" cy="1220" r="4"/></g></svg>
