<svg xmlns="http://www.w3.org/2000/svg" width="128" height="128" viewBox="0 0 128 128"><rect x="4" y="4" width="120" height="120" rx="31" fill="#F1D7A4" stroke="#CCB68E" stroke-width="2"/><g transform="rotate(-9 45 66)"><rect x="15" y="24" width="56" height="76" rx="12" fill="#B8CEAA" stroke="#73906C" stroke-width="2"/><path d="M25 36h35v50H25Z" fill="none" stroke="#EFF1D5" stroke-dasharray="3 3"/></g><g transform="rotate(8 83 65)"><rect x="55" y="23" width="57" height="78" rx="12" fill="#FFFAEA" stroke="#A5B789" stroke-width="2"/><g transform="translate(56 35) scale(.58)"><ellipse cx="48" cy="82" rx="27" ry="4" fill="#6D865B" opacity=".12"/><g stroke="#6D865B" stroke-width="2.1" stroke-linecap="round" stroke-linejoin="round"><path d="M23 55Q18 34 33 27q0-10 8-6 7-11 11-2 9-7 11 5 18 9 12 34Q69 80 47 80 23 78 23 55Z" fill="#F4DBA0"/><path d="M25 49q-12-1-10 9t13 5m45-14q12-1 9 10t-12 4M37 79v5m22-5v5" fill="#F4DBA0"/><path d="m43 55 5 4 5-4-5-3Z" fill="#CF9758" stroke="none"/><g fill="#526347"><circle cx="40" cy="46" r="2"/><circle cx="56" cy="46" r="2"/></g><path d="M45 51q3 4 6 0" fill="none" stroke="#526347" stroke-width="1.5" stroke-linecap="round"/><g fill="#E9A596" opacity=".65"><ellipse cx="33" cy="50" rx="4" ry="2.5"/><ellipse cx="63" cy="50" rx="4" ry="2.5"/></g></g></g></g><path d="m108 91 3 7 8 3-8 3-3 8-3-8-7-3 7-3Z" fill="#D99873"/></svg>
