<svg xmlns="http://www.w3.org/2000/svg" width="128" height="128" viewBox="0 0 128 128">
  <title>鸡窝开张</title>
  <desc>暖木小屋迎来第一颗星星蛋，任一重构游戏首次正常完成一局。</desc>
  <g stroke="#795A43" stroke-width="3.2" stroke-linecap="round" stroke-linejoin="round">
    <path d="M24 53L64 21L104 53V109H24Z" fill="#E8C892"/><path d="M16 55L64 17L112 55" fill="none" stroke="#A27B51" stroke-width="7"/><path d="M16 53L64 15L112 53" fill="none" stroke="#E0B978" stroke-width="3"/><rect x="42" y="55" width="44" height="54" rx="19" fill="#FFF5DE" /><path d="M64 64C53 64 45 83 48 93C52 111 80 111 81 92C82 82 73 64 64 64Z" fill="#F6DC9D"/><path d="M64 73Q65 81 73 82Q65 83 64 91Q63 83 55 82Q63 81 64 73Z" fill="#EDBF6C" stroke="#A57C46" stroke-width="2"/><circle cx="103" cy="102" r="12" fill="#35785E" stroke="#D8E5B9" stroke-width="2.5"/><path d="M97.24 102l3.84 3.84 7.800000000000001 -8.399999999999999" fill="none" stroke="#FFF5DE" stroke-width="3.5"/><g transform="translate(13 81) rotate(-27) scale(0.67)" ><path d="M0 17C-3 5 6-3 20-3C19 10 12 20 0 17Z" fill="#ADC892" stroke="#62866B" stroke-width="2.5"/><path d="M-2 21L13 3" fill="none" stroke="#62866B" stroke-width="2"/></g>
  </g>
</svg>
