<svg xmlns="http://www.w3.org/2000/svg" width="96" height="96" viewBox="0 0 96 96"><title></title><ellipse cx="48" cy="11" rx="3.5" ry="7" fill="#E7BD7D" transform="rotate(0 48 48)"/><ellipse cx="48" cy="11" rx="3.5" ry="7" fill="#EAB6A5" transform="rotate(45 48 48)"/><ellipse cx="48" cy="11" rx="3.5" ry="7" fill="#E7BD7D" transform="rotate(90 48 48)"/><ellipse cx="48" cy="11" rx="3.5" ry="7" fill="#EAB6A5" transform="rotate(135 48 48)"/><ellipse cx="48" cy="11" rx="3.5" ry="7" fill="#E7BD7D" transform="rotate(180 48 48)"/><ellipse cx="48" cy="11" rx="3.5" ry="7" fill="#EAB6A5" transform="rotate(225 48 48)"/><ellipse cx="48" cy="11" rx="3.5" ry="7" fill="#E7BD7D" transform="rotate(270 48 48)"/><ellipse cx="48" cy="11" rx="3.5" ry="7" fill="#EAB6A5" transform="rotate(315 48 48)"/><circle cx="48" cy="48" r="29" fill="none" stroke="#E7BD7D" stroke-opacity=".35"/></svg>
