<svg xmlns="http://www.w3.org/2000/svg" width="96" height="96" viewBox="0 0 96 96"><title>粉色花朵</title><defs><linearGradient id="bead" x1="0" y1="0" x2="1" y2="1"><stop stop-color="#E5B1AB"/>
<stop offset="1" stop-color="#A56E6D"/></linearGradient></defs>
<ellipse cx="48" cy="82" rx="34" ry="7" fill="#1A3325" opacity=".12"/>
<circle cx="48" cy="46" r="39" fill="url(#bead)" stroke="#F2CEBE" stroke-width="2"/>
<path d="M19 38Q24 17 46 16" fill="none" stroke="#FFF9E9" stroke-opacity=".57" stroke-width="4.5" stroke-linecap="round"/>
<path d="M72 61q-6 12-20 13" fill="none" stroke="#F2CEBE" stroke-opacity=".38" stroke-width="2.5" stroke-linecap="round"/><ellipse cx="48" cy="32.05" rx="8.74" ry="13.799999999999999" fill="#FFF9E9" transform="rotate(0 48 47)"/><ellipse cx="48" cy="32.05" rx="8.74" ry="13.799999999999999" fill="#FFF9E9" transform="rotate(72 48 47)"/><ellipse cx="48" cy="32.05" rx="8.74" ry="13.799999999999999" fill="#FFF9E9" transform="rotate(144 48 47)"/><ellipse cx="48" cy="32.05" rx="8.74" ry="13.799999999999999" fill="#FFF9E9" transform="rotate(216 48 47)"/><ellipse cx="48" cy="32.05" rx="8.74" ry="13.799999999999999" fill="#FFF9E9" transform="rotate(288 48 47)"/><circle cx="48" cy="47" r="7.590000000000001" fill="#D58E70"/><circle cx="46" cy="46" r="1.7" fill="#795642"/><circle cx="51" cy="46" r="1.7" fill="#795642"/></svg>
