<svg xmlns="http://www.w3.org/2000/svg" width="96" height="96" viewBox="0 0 96 96"><ellipse cx="48" cy="82" rx="27" ry="4" fill="#6D865B" opacity=".12"/><g stroke="#6D865B" stroke-width="2.1" stroke-linecap="round" stroke-linejoin="round"><path d="M65 37q24-8 23 13-1 18-20 10M25 44 10 29l-6 10 20 24" fill="none" stroke-width="8"/><path d="M25 37q-13 36 18 43 35 6 30-26l-7-18Z" fill="#EAB2AC"/><path d="M24 36q23-18 46 0Z" fill="#E6C9B3"/><circle cx="46" cy="20" r="5" fill="#E6C9B3"/><g fill="#526347"><circle cx="40" cy="53" r="2"/><circle cx="56" cy="53" r="2"/></g><path d="M45 58q3 4 6 0" fill="none" stroke="#526347" stroke-width="1.5" stroke-linecap="round"/><g fill="#E9A596" opacity=".65"><ellipse cx="33" cy="57" rx="4" ry="2.5"/><ellipse cx="63" cy="57" rx="4" ry="2.5"/></g></g></svg>
